<svg xmlns="http://www.w3.org/2000/svg" xmlns:xlink="http://www.w3.org/1999/xlink" viewBox="0 0 465.78 153.61"><defs><style>.cls-1{fill:none;}.cls-2{isolation:isolate;}.cls-3{fill:#36adb7;}.cls-4{fill:#1b757d;}.cls-5{fill:#2c949d;}.cls-6{clip-path:url(#clip-path);}.cls-7{fill:#1c777f;}.cls-8{clip-path:url(#clip-path-2);}.cls-9{fill:#1a747b;}.cls-10{clip-path:url(#clip-path-3);}.cls-11{fill:#288c95;}.cls-12{fill:#278992;}.cls-13{fill:#25868f;}.cls-14{fill:#24848d;}.cls-15{fill:#24848c;}.cls-16{clip-path:url(#clip-path-4);}.cls-17{clip-path:url(#clip-path-5);}.cls-18{clip-path:url(#clip-path-6);}.cls-19{fill:#1e7a82;}.cls-20{fill:#207d85;}.cls-21{fill:#228088;}.cls-22{fill:#23838b;}.cls-23{clip-path:url(#clip-path-7);}.cls-24{clip-path:url(#clip-path-8);}.cls-25{clip-path:url(#clip-path-9);}.cls-26{clip-path:url(#clip-path-10);}.cls-27{fill:#70b38e;}.cls-28{clip-path:url(#clip-path-11);}.cls-29{fill:#487b61;}.cls-30{fill:#5e9979;}.cls-31{clip-path:url(#clip-path-12);}.cls-32{fill:#477a60;}.cls-33{clip-path:url(#clip-path-13);}.cls-34{clip-path:url(#clip-path-14);}.cls-35{clip-path:url(#clip-path-15);}.cls-36{clip-path:url(#clip-path-16);}.cls-37{fill:#589173;}.cls-38{fill:#568e71;}.cls-39{fill:#548b6e;}.cls-40{clip-path:url(#clip-path-17);}.cls-41{fill:#4a7e64;}.cls-42{fill:#4d8166;}.cls-43{fill:#4f8569;}.cls-44{fill:#51886b;}.cls-45{clip-path:url(#clip-path-18);}.cls-46{clip-path:url(#clip-path-19);}.cls-47{clip-path:url(#clip-path-20);}.cls-48{clip-path:url(#clip-path-21);}.cls-49{clip-path:url(#clip-path-22);}.cls-50{clip-path:url(#clip-path-23);}.cls-51{clip-path:url(#clip-path-24);}.cls-52{clip-path:url(#clip-path-25);}.cls-53{clip-path:url(#clip-path-26);}.cls-54{clip-path:url(#clip-path-27);}.cls-55{clip-path:url(#clip-path-28);}.cls-56{clip-path:url(#clip-path-29);}.cls-57{clip-path:url(#clip-path-30);}</style><clipPath id="clip-path"><path class="cls-1" d="M354.25,95.91l-22.8-12.4a7.83,7.83,0,0,1-3.37-4l22.79,12.4A7.84,7.84,0,0,0,354.25,95.91Z"/></clipPath><clipPath id="clip-path-2"><path class="cls-1" d="M350.32,90l-22.79-12.4a10.56,10.56,0,0,1-.18-1.95L350.14,88A10.56,10.56,0,0,0,350.32,90Z"/></clipPath><clipPath id="clip-path-3"><path class="cls-1" d="M317.77,50.68l22.8,12.4a8,8,0,0,0-5-.71L312.73,50A8,8,0,0,1,317.77,50.68Z"/></clipPath><clipPath id="clip-path-4"><path class="cls-1" d="M350.23,38.54l-22.79-12.4a11.58,11.58,0,0,1,.19-2l22.79,12.4A11.58,11.58,0,0,0,350.23,38.54Z"/></clipPath><clipPath id="clip-path-5"><path class="cls-1" d="M378.35,10.51l22.79,12.4a7.94,7.94,0,0,0-5-.72L373.3,9.79A8,8,0,0,1,378.35,10.51Z"/></clipPath><clipPath id="clip-path-6"><path class="cls-1" d="M351,34.47l-22.8-12.4q2.4-6.27,8.45-7.12l22.79,12.4Q353.38,28.19,351,34.47Z"/></clipPath><clipPath id="clip-path-7"><path class="cls-1" d="M317.83,19l22.8,12.4a8,8,0,0,0-5.05-.71L312.79,18.3A8,8,0,0,1,317.83,19Z"/></clipPath><clipPath id="clip-path-8"><path class="cls-1" d="M111.47,79.68l22.8,12.4a8,8,0,0,0-5-.72L106.43,79A7.93,7.93,0,0,1,111.47,79.68Z"/></clipPath><clipPath id="clip-path-9"><path class="cls-1" d="M111.53,48l22.8,12.4a8,8,0,0,0-5.05-.72l-22.79-12.4A7.94,7.94,0,0,1,111.53,48Z"/></clipPath><clipPath id="clip-path-10"><path class="cls-1" d="M51,56.51l22.79,12.4a8,8,0,0,0-5-.71L46,55.8A8,8,0,0,1,51,56.51Z"/></clipPath><clipPath id="clip-path-11"><path class="cls-1" d="M420.92,140.9l-22.8-12.39a4,4,0,0,1-1.71-2.06l22.79,12.4A4,4,0,0,0,420.92,140.9Z"/></clipPath><clipPath id="clip-path-12"><path class="cls-1" d="M418.92,137.88l-22.79-12.4a4.68,4.68,0,0,1-.09-1l22.8,12.39A4.71,4.71,0,0,0,418.92,137.88Z"/></clipPath><clipPath id="clip-path-13"><path class="cls-1" d="M392.42,144.91l-22.8-12.4a4,4,0,0,1-1.71-2.06l22.79,12.4A3.94,3.94,0,0,0,392.42,144.91Z"/></clipPath><clipPath id="clip-path-14"><path class="cls-1" d="M390.42,141.89l-22.79-12.4a4.78,4.78,0,0,1-.1-1l22.8,12.4A5.55,5.55,0,0,0,390.42,141.89Z"/></clipPath><clipPath id="clip-path-15"><path class="cls-1" d="M418.88,111.66,396.09,99.27a5.15,5.15,0,0,1,.09-1L419,110.65A6,6,0,0,0,418.88,111.66Z"/></clipPath><clipPath id="clip-path-16"><path class="cls-1" d="M419.69,91.64l22.8,12.4a4.08,4.08,0,0,0-2.58-.37l-22.79-12.4A4.05,4.05,0,0,1,419.69,91.64Z"/></clipPath><clipPath id="clip-path-17"><path class="cls-1" d="M419.25,109.6,396.46,97.2a5.19,5.19,0,0,1,4.31-3.63L423.56,106A5.21,5.21,0,0,0,419.25,109.6Z"/></clipPath><clipPath id="clip-path-18"><path class="cls-1" d="M363.92,148.92l-22.8-12.4a4.08,4.08,0,0,1-1.72-2.06l22.8,12.4A4,4,0,0,0,363.92,148.92Z"/></clipPath><clipPath id="clip-path-19"><path class="cls-1" d="M361.92,145.89,339.13,133.5a4.85,4.85,0,0,1-.1-1l22.8,12.4A4.68,4.68,0,0,0,361.92,145.89Z"/></clipPath><clipPath id="clip-path-20"><path class="cls-1" d="M390.37,115.67l-22.79-12.4a5,5,0,0,1,.1-1l22.79,12.39A6.07,6.07,0,0,0,390.37,115.67Z"/></clipPath><clipPath id="clip-path-21"><path class="cls-1" d="M391.19,95.64,414,108a4,4,0,0,0-2.57-.36l-22.79-12.4A4.05,4.05,0,0,1,391.19,95.64Z"/></clipPath><clipPath id="clip-path-22"><path class="cls-1" d="M390.75,113.6,368,101.2a5.21,5.21,0,0,1,4.31-3.63L395.06,110A5.22,5.22,0,0,0,390.75,113.6Z"/></clipPath><clipPath id="clip-path-23"><path class="cls-1" d="M335.44,140.82l-22.79-12.4a4,4,0,0,1-1.72-2.06l22.79,12.4A4,4,0,0,0,335.44,140.82Z"/></clipPath><clipPath id="clip-path-24"><path class="cls-1" d="M361.87,119.68l-22.79-12.4a5.18,5.18,0,0,1,.1-1L362,118.66A6.07,6.07,0,0,0,361.87,119.68Z"/></clipPath><clipPath id="clip-path-25"><path class="cls-1" d="M333.44,137.8l-22.79-12.4a4.78,4.78,0,0,1-.1-1l22.8,12.4A5.55,5.55,0,0,0,333.44,137.8Z"/></clipPath><clipPath id="clip-path-26"><path class="cls-1" d="M362.69,99.65l22.79,12.4a4,4,0,0,0-2.57-.37l-22.79-12.4A4.06,4.06,0,0,1,362.69,99.65Z"/></clipPath><clipPath id="clip-path-27"><path class="cls-1" d="M362.25,117.61l-22.79-12.4a5.19,5.19,0,0,1,4.3-3.63L366.55,114A5.19,5.19,0,0,0,362.25,117.61Z"/></clipPath><clipPath id="clip-path-28"><path class="cls-1" d="M333.37,123.68l-22.79-12.4a5,5,0,0,1,.1-1l22.79,12.4A5,5,0,0,0,333.37,123.68Z"/></clipPath><clipPath id="clip-path-29"><path class="cls-1" d="M334.18,103.65l22.8,12.4a4.12,4.12,0,0,0-2.57-.36l-22.8-12.4A4.11,4.11,0,0,1,334.18,103.65Z"/></clipPath><clipPath id="clip-path-30"><path class="cls-1" d="M333.75,121.61,311,109.22a5.18,5.18,0,0,1,4.3-3.63L338.05,118A5.18,5.18,0,0,0,333.75,121.61Z"/></clipPath></defs><g id="Layer_2" data-name="Layer 2"><g id="Layer_1-2" data-name="Layer 1"><g class="cls-2"><polygon class="cls-3" points="83.3 135.41 83.31 129.47 97.07 127.54 97.06 133.48 83.3 135.41"/><polygon class="cls-4" points="83.3 135.41 60.51 123.02 60.52 117.08 83.31 129.47 83.3 135.41"/><polygon class="cls-5" points="83.31 129.47 60.52 117.08 74.28 115.14 97.07 127.54 83.31 129.47"/></g><g class="cls-2"><polygon class="cls-3" points="83.32 127.49 83.33 121.56 97.08 119.62 97.07 125.56 83.32 127.49"/><polygon class="cls-4" points="83.32 127.49 60.52 115.09 60.54 109.16 83.33 121.56 83.32 127.49"/><polygon class="cls-5" points="83.33 121.56 60.54 109.16 74.29 107.22 97.08 119.62 83.33 121.56"/></g><g class="cls-2"><polygon class="cls-3" points="83.33 119.58 83.34 113.64 97.1 111.71 97.09 117.64 83.33 119.58"/><polygon class="cls-4" points="83.33 119.58 60.54 107.17 60.55 101.24 83.34 113.64 83.33 119.58"/><polygon class="cls-5" points="83.34 113.64 60.55 101.24 74.31 99.31 97.1 111.71 83.34 113.64"/></g><g class="cls-2"><path class="cls-3" d="M22.79,143.92V138l54.28-7.63q-2.39,6.27-8.44,7.13Z"/><polygon class="cls-4" points="22.79 143.92 0 131.52 0.01 125.58 22.8 137.98 22.79 143.92"/><polygon class="cls-5" points="22.8 137.98 0.01 125.58 54.29 117.95 77.08 130.35 22.8 137.98"/></g><g class="cls-2"><polygon class="cls-3" points="83.35 111.66 83.36 105.72 97.11 103.79 97.1 109.73 83.35 111.66"/><polygon class="cls-4" points="83.35 111.66 60.55 99.26 60.57 93.33 83.36 105.72 83.35 111.66"/><polygon class="cls-5" points="83.36 105.72 60.57 93.33 74.32 91.39 97.11 103.79 83.36 105.72"/></g><g class="cls-2"><path class="cls-3" d="M22.81,136v-5.94l55-7.73v4a11.37,11.37,0,0,1-.19,2Z"/><polygon class="cls-4" points="22.81 136 0.01 123.6 0.03 117.66 22.82 130.06 22.81 136"/><polygon class="cls-5" points="22.82 130.06 0.03 117.66 55.04 109.93 77.83 122.33 22.82 130.06"/></g><g class="cls-2"><path class="cls-3" d="M359.3,96.63q-6.06.84-8.43-4.76l53.54-7.52Q402,90.62,396,91.47Z"/><g class="cls-2"><g class="cls-6"><g class="cls-2"><path class="cls-7" d="M354.25,95.91l-22.8-12.4a7.83,7.83,0,0,1-3.37-4l22.79,12.4a7.84,7.84,0,0,0,3.38,4"/></g></g></g><polygon class="cls-5" points="350.87 91.87 328.08 79.47 381.62 71.95 404.41 84.35 350.87 91.87"/></g><g class="cls-2"><g class="cls-2"><g class="cls-8"><g class="cls-2"><path class="cls-7" d="M350.32,90l-22.79-12.4a10.56,10.56,0,0,1-.18-1.95L350.14,88a10.56,10.56,0,0,0,.18,2"/></g></g></g><path class="cls-3" d="M350.14,88v-4l55-7.74v4a11.4,11.4,0,0,1-.19,2L350.32,90A10.56,10.56,0,0,1,350.14,88Z"/><polygon class="cls-4" points="350.14 88.02 327.35 75.62 327.36 71.66 350.15 84.06 350.14 88.02"/><polygon class="cls-5" points="350.15 84.06 327.36 71.66 382.37 63.92 405.17 76.32 350.15 84.06"/></g><g class="cls-2"><polygon class="cls-3" points="363.92 74.21 363.91 80.14 350.15 82.08 350.16 76.14 363.92 74.21"/><polygon class="cls-4" points="350.15 82.08 327.36 69.68 327.37 63.74 350.16 76.14 350.15 82.08"/><polygon class="cls-5" points="350.16 76.14 327.37 63.74 341.12 61.81 363.92 74.21 350.16 76.14"/></g><g class="cls-2"><path class="cls-3" d="M289.6,106.42l0-5.94,54.28-7.63q-2.4,6.27-8.44,7.13Z"/><polygon class="cls-4" points="289.6 106.42 266.81 94.02 266.82 88.08 289.62 100.48 289.6 106.42"/><polygon class="cls-5" points="289.62 100.48 266.82 88.08 321.11 80.45 343.9 92.85 289.62 100.48"/></g><g class="cls-2"><polygon class="cls-3" points="363.93 66.29 363.92 72.23 350.17 74.17 350.18 68.22 363.93 66.29"/><polygon class="cls-4" points="350.17 74.17 327.37 61.77 327.38 55.83 350.18 68.22 350.17 74.17"/><polygon class="cls-5" points="350.18 68.22 327.38 55.83 341.14 53.89 363.93 66.29 350.18 68.22"/></g><g class="cls-2"><path class="cls-3" d="M289.62,98.5V92.56l55-7.73v4a10.5,10.5,0,0,1-.19,2Z"/><polygon class="cls-4" points="289.62 98.5 266.83 86.1 266.84 80.16 289.63 92.56 289.62 98.5"/><polygon class="cls-5" points="289.63 92.56 266.84 80.16 321.85 72.43 344.65 84.83 289.63 92.56"/></g><g class="cls-2"><polygon class="cls-3" points="303.4 82.72 303.39 88.65 289.63 90.58 289.64 84.65 303.4 82.72"/><polygon class="cls-4" points="289.63 90.58 266.84 78.18 266.85 72.25 289.64 84.65 289.63 90.58"/><polygon class="cls-5" points="289.64 84.65 266.85 72.25 280.61 70.32 303.4 82.72 289.64 84.65"/></g><g class="cls-2"><polygon class="cls-3" points="262.66 104.27 280.08 101.82 284.11 107.19 266.69 109.64 262.66 104.27"/><polygon class="cls-5" points="262.66 104.27 239.87 91.87 257.29 89.42 280.08 101.82 262.66 104.27"/><polygon class="cls-9" points="266.69 109.64 243.89 97.24 239.87 91.87 262.66 104.27 266.69 109.64"/></g><g class="cls-2"><polygon class="cls-3" points="303.41 74.8 303.4 80.74 289.65 82.67 289.66 76.73 303.41 74.8"/><polygon class="cls-4" points="289.65 82.67 266.86 70.27 266.87 64.33 289.66 76.73 289.65 82.67"/><polygon class="cls-5" points="289.66 76.73 266.87 64.33 280.62 62.4 303.41 74.8 289.66 76.73"/></g><g class="cls-2"><polygon class="cls-3" points="274.78 94.65 278.81 100.02 261.38 102.47 257.36 97.1 274.78 94.65"/><polygon class="cls-9" points="261.38 102.47 238.59 90.07 234.56 84.7 257.36 97.1 261.38 102.47"/><polygon class="cls-5" points="257.36 97.1 234.56 84.7 251.99 82.25 274.78 94.65 257.36 97.1"/></g><g class="cls-2"><polygon class="cls-3" points="363.95 58.37 363.94 64.31 350.18 66.25 350.19 60.3 363.95 58.37"/><polygon class="cls-4" points="350.18 66.25 327.39 53.85 327.4 47.91 350.19 60.3 350.18 66.25"/><polygon class="cls-5" points="350.19 60.3 327.4 47.91 341.15 45.97 363.95 58.37 350.19 60.3"/></g><g class="cls-2"><polygon class="cls-3" points="330.9 84.78 330.91 78.85 344.66 76.92 344.65 82.85 330.9 84.78"/><polygon class="cls-4" points="330.9 84.78 308.1 72.38 308.11 66.45 330.91 78.85 330.9 84.78"/><polygon class="cls-5" points="330.91 78.85 308.11 66.45 321.87 64.52 344.66 76.92 330.91 78.85"/></g><g class="cls-2"><polygon class="cls-3" points="363.96 50.46 363.95 56.39 350.2 58.33 350.21 52.39 363.96 50.46"/><polygon class="cls-4" points="350.2 58.33 327.4 45.93 327.42 39.99 350.21 52.39 350.2 58.33"/><polygon class="cls-5" points="350.21 52.39 327.42 39.99 341.17 38.06 363.96 50.46 350.21 52.39"/></g><g class="cls-2"><path class="cls-3" d="M330.92,70.93,344.49,69a9.86,9.86,0,0,1,.18,2v4l-13.75,1.93Z"/><polygon class="cls-5" points="330.92 70.93 308.13 58.53 321.7 56.63 344.49 69.02 330.92 70.93"/><polygon class="cls-4" points="330.91 76.87 308.12 64.47 308.13 58.53 330.92 70.93 330.91 76.87"/></g><g class="cls-2"><polygon class="cls-3" points="363.98 42.54 363.96 48.48 350.21 50.41 350.22 44.48 363.98 42.54"/><polygon class="cls-4" points="350.21 50.41 327.42 38.02 327.43 32.08 350.22 44.48 350.21 50.41"/><polygon class="cls-5" points="350.22 44.48 327.43 32.08 341.18 30.14 363.98 42.54 350.22 44.48"/></g><g class="cls-2"><g class="cls-2"><g class="cls-10"><g class="cls-2"><path class="cls-11" d="M335.53,62.37,312.73,50a9,9,0,0,1,3.55.13l22.79,12.4a9,9,0,0,0-3.54-.13"/><path class="cls-12" d="M339.07,62.5,316.28,50.1a6.77,6.77,0,0,1,1.26.46L340.34,63a6.61,6.61,0,0,0-1.27-.46"/><path class="cls-13" d="M340.34,63l-22.8-12.4.23.12,22.8,12.4-.23-.12"/></g></g></g><path class="cls-3" d="M335.53,62.37q6-.85,8.42,4.75l-54.29,7.63V68.81Z"/><polygon class="cls-4" points="289.66 74.75 266.87 62.35 266.88 56.41 289.67 68.81 289.66 74.75"/><polygon class="cls-5" points="289.67 68.81 266.88 56.41 312.73 49.97 335.53 62.37 289.67 68.81"/></g><g class="cls-2"><polygon class="cls-3" points="269.48 87.48 273.41 92.86 255.99 95.31 252.06 89.93 269.48 87.48"/><polygon class="cls-9" points="255.99 95.31 233.2 82.91 229.27 77.53 252.06 89.93 255.99 95.31"/><polygon class="cls-5" points="252.06 89.93 229.27 77.53 246.68 75.08 269.48 87.48 252.06 89.93"/></g><g class="cls-2"><polygon class="cls-3" points="223.59 115.7 223.6 109.76 241.39 107.26 237.34 113.77 223.59 115.7"/><polygon class="cls-4" points="223.59 115.7 200.8 103.3 200.81 97.36 223.6 109.76 223.59 115.7"/><polygon class="cls-5" points="223.6 109.76 200.81 97.36 218.6 94.86 241.39 107.26 223.6 109.76"/></g><g class="cls-2"><polygon class="cls-3" points="223.6 107.78 223.62 101.84 246.73 98.59 242.68 105.1 223.6 107.78"/><polygon class="cls-4" points="223.6 107.78 200.81 95.38 200.82 89.44 223.62 101.84 223.6 107.78"/><polygon class="cls-5" points="223.62 101.84 200.82 89.44 223.93 86.19 246.73 98.59 223.62 101.84"/></g><g class="cls-2"><polygon class="cls-3" points="223.62 99.86 223.63 93.93 252.06 89.93 248.1 96.42 223.62 99.86"/><polygon class="cls-4" points="223.62 99.86 200.83 87.46 200.84 81.53 223.63 93.93 223.62 99.86"/><polygon class="cls-5" points="223.63 93.93 200.84 81.53 229.27 77.53 252.06 89.93 223.63 93.93"/></g><g class="cls-2"><polygon class="cls-3" points="204.34 118.4 200.4 113.02 218.1 110.53 218.09 116.47 204.34 118.4"/><polygon class="cls-9" points="204.34 118.4 181.55 106 177.61 100.62 200.4 113.02 204.34 118.4"/><polygon class="cls-5" points="200.4 113.02 177.61 100.62 195.31 98.13 218.1 110.53 200.4 113.02"/></g><g class="cls-2"><polygon class="cls-5" points="240.06 83.7 217.27 71.3 241.29 67.93 264.08 80.33 240.06 83.7"/><polygon class="cls-14" points="237.39 87.93 214.6 75.53 217.27 71.3 240.06 83.7 237.39 87.93"/><polygon class="cls-3" points="264.08 80.33 268.11 85.7 223.63 91.95 223.65 86.01 237.4 84.08 237.39 87.93 240.06 83.7 264.08 80.33"/><polygon class="cls-4" points="223.63 91.95 200.84 79.55 200.85 73.61 223.65 86.01 223.63 91.95"/><polygon class="cls-5" points="223.65 86.01 200.85 73.61 214.61 71.68 237.4 84.08 223.65 86.01"/></g><g class="cls-2"><polygon class="cls-3" points="199.13 111.22 195.19 105.83 218.11 102.61 218.1 108.55 199.13 111.22"/><polygon class="cls-9" points="199.13 111.22 176.33 98.82 172.4 93.43 195.19 105.83 199.13 111.22"/><polygon class="cls-5" points="195.19 105.83 172.4 93.43 195.32 90.21 218.11 102.61 195.19 105.83"/></g><g class="cls-2"><polygon class="cls-5" points="245.39 75.03 222.6 62.63 240.02 60.19 262.81 72.58 245.39 75.03"/><polygon class="cls-3" points="260.79 75.84 262.8 78.53 241.34 81.54 245.39 75.03 262.81 72.58 260.79 75.84"/><polygon class="cls-15" points="241.34 81.54 218.55 69.14 222.6 62.63 245.39 75.03 241.34 81.54"/></g><g class="cls-2"><polygon class="cls-3" points="391.41 76.28 391.43 70.35 405.18 68.41 405.17 74.34 391.41 76.28"/><polygon class="cls-4" points="391.41 76.28 368.62 63.88 368.63 57.95 391.43 70.35 391.41 76.28"/><polygon class="cls-5" points="391.43 70.35 368.63 57.95 382.39 56.01 405.18 68.41 391.43 70.35"/></g><g class="cls-2"><polygon class="cls-3" points="391.43 68.37 391.44 62.43 405.19 60.49 405.18 66.43 391.43 68.37"/><polygon class="cls-4" points="391.43 68.37 368.64 55.97 368.65 50.03 391.44 62.43 391.43 68.37"/><polygon class="cls-5" points="391.44 62.43 368.65 50.03 382.4 48.09 405.19 60.49 391.44 62.43"/></g><g class="cls-2"><polygon class="cls-3" points="391.44 60.45 391.45 54.51 405.21 52.57 405.2 58.51 391.44 60.45"/><polygon class="cls-4" points="391.44 60.45 368.65 48.05 368.66 42.11 391.45 54.51 391.44 60.45"/><polygon class="cls-5" points="391.45 54.51 368.66 42.11 382.42 40.17 405.21 52.57 391.45 54.51"/></g><g class="cls-2"><polygon class="cls-3" points="432.18 86.38 432.19 80.44 445.95 78.51 445.94 84.45 432.18 86.38"/><polygon class="cls-4" points="432.18 86.38 409.39 73.98 409.4 68.04 432.19 80.44 432.18 86.38"/><polygon class="cls-5" points="432.19 80.44 409.4 68.04 423.15 66.11 445.95 78.51 432.19 80.44"/></g><g class="cls-2"><polygon class="cls-3" points="432.2 78.46 432.21 72.52 445.96 70.59 445.95 76.53 432.2 78.46"/><polygon class="cls-4" points="432.2 78.46 409.4 66.06 409.41 60.12 432.21 72.52 432.2 78.46"/><polygon class="cls-5" points="432.21 72.52 409.41 60.12 423.17 58.19 445.96 70.59 432.21 72.52"/></g><g class="cls-2"><polygon class="cls-3" points="432.21 70.54 432.22 64.61 445.98 62.68 445.96 68.61 432.21 70.54"/><polygon class="cls-4" points="432.21 70.54 409.42 58.14 409.43 52.21 432.22 64.61 432.21 70.54"/><polygon class="cls-5" points="432.22 64.61 409.43 52.21 423.18 50.28 445.98 62.68 432.22 64.61"/></g><g class="cls-2"><polygon class="cls-3" points="432.23 62.63 432.24 56.69 445.99 54.76 445.98 60.7 432.23 62.63"/><polygon class="cls-4" points="432.23 62.63 409.43 50.23 409.44 44.29 432.24 56.69 432.23 62.63"/><polygon class="cls-5" points="432.24 56.69 409.44 44.29 423.2 42.36 445.99 54.76 432.24 56.69"/></g><g class="cls-2"><polygon class="cls-3" points="432.24 54.71 432.25 48.77 446.01 46.84 446 52.78 432.24 54.71"/><polygon class="cls-4" points="432.24 54.71 409.45 42.31 409.46 36.37 432.25 48.77 432.24 54.71"/><polygon class="cls-5" points="432.25 48.77 409.46 36.37 423.21 34.44 446.01 46.84 432.25 48.77"/></g><g class="cls-2"><polygon class="cls-3" points="432.26 46.79 432.27 40.86 446.02 38.93 446.01 44.86 432.26 46.79"/><polygon class="cls-4" points="432.26 46.79 409.46 34.39 409.47 28.46 432.27 40.86 432.26 46.79"/><polygon class="cls-5" points="432.27 40.86 409.47 28.46 423.23 26.53 446.02 38.93 432.27 40.86"/></g><g class="cls-2"><polygon class="cls-3" points="432.27 38.88 432.28 32.94 446.04 31.01 446.02 36.95 432.27 38.88"/><polygon class="cls-4" points="432.27 38.88 409.48 26.48 409.49 20.54 432.28 32.94 432.27 38.88"/><polygon class="cls-5" points="432.28 32.94 409.49 20.54 423.24 18.61 446.04 31.01 432.28 32.94"/></g><g class="cls-2"><polygon class="cls-3" points="410.75 33.99 410.76 28.05 465.76 20.32 465.75 26.26 410.75 33.99"/><polygon class="cls-4" points="410.75 33.99 387.95 21.59 387.96 15.65 410.76 28.05 410.75 33.99"/><polygon class="cls-5" points="410.76 28.05 387.96 15.65 442.97 7.92 465.76 20.32 410.76 28.05"/></g><g class="cls-2"><polygon class="cls-3" points="391.46 52.53 391.47 46.59 405.22 44.66 405.21 50.59 391.46 52.53"/><polygon class="cls-4" points="391.46 52.53 368.67 40.13 368.68 34.2 391.47 46.59 391.46 52.53"/><polygon class="cls-5" points="391.47 46.59 368.68 34.2 382.43 32.26 405.22 44.66 391.47 46.59"/></g><g class="cls-2"><polygon class="cls-3" points="410.77 20.13 465.78 12.4 465.77 18.34 410.76 26.07 410.77 20.13"/><polygon class="cls-5" points="410.77 20.13 387.98 7.73 442.99 0 465.78 12.4 410.77 20.13"/><polygon class="cls-4" points="410.76 26.07 387.97 13.67 387.98 7.73 410.77 20.13 410.76 26.07"/></g><g class="cls-2"><polygon class="cls-3" points="391.47 44.62 391.48 38.68 405.24 36.74 405.23 42.68 391.47 44.62"/><polygon class="cls-4" points="391.47 44.62 368.68 32.22 368.69 26.28 391.48 38.68 391.47 44.62"/><polygon class="cls-5" points="391.48 38.68 368.69 26.28 382.44 24.34 405.24 36.74 391.48 38.68"/></g><g class="cls-2"><polygon class="cls-4" points="350.23 42.49 327.43 30.1 327.44 26.14 350.23 38.53 350.23 42.49"/><path class="cls-3" d="M405.07,28.85a10.72,10.72,0,0,1,.18,1.95v4l-55,7.73v-4a11.58,11.58,0,0,1,.19-2Z"/><g class="cls-2"><g class="cls-16"><g class="cls-2"><path class="cls-7" d="M350.23,38.54l-22.79-12.4a11.58,11.58,0,0,1,.19-2l22.79,12.4a11.58,11.58,0,0,0-.19,2"/></g></g></g><polygon class="cls-5" points="350.42 36.53 327.63 24.13 382.27 16.45 405.07 28.85 350.42 36.53"/></g><g class="cls-2"><path class="cls-3" d="M344,53.27q-2.42,6.27-8.45,7.12l-45.85,6.44V60.9Z"/><polygon class="cls-4" points="289.68 66.83 266.88 54.43 266.9 48.5 289.69 60.9 289.68 66.83"/><polygon class="cls-5" points="289.69 60.9 266.9 48.5 321.18 40.87 343.98 53.27 289.69 60.9"/></g><g class="cls-2"><polygon class="cls-3" points="303.46 51.05 303.45 56.99 289.69 58.92 289.7 52.98 303.46 51.05"/><polygon class="cls-4" points="289.69 58.92 266.9 46.52 266.91 40.58 289.7 52.98 289.69 58.92"/><polygon class="cls-5" points="289.7 52.98 266.91 40.58 280.66 38.65 303.46 51.05 289.7 52.98"/></g><g class="cls-2"><polygon class="cls-5" points="250.73 66.38 227.93 53.98 245.36 51.53 268.15 63.93 250.73 66.38"/><polygon class="cls-3" points="268.15 63.93 264.1 70.42 246.68 72.87 250.73 66.38 268.15 63.93"/><polygon class="cls-15" points="246.68 72.87 223.88 60.48 227.93 53.98 250.73 66.38 246.68 72.87"/></g><g class="cls-2"><g class="cls-2"><g class="cls-17"><g class="cls-2"><path class="cls-11" d="M396.1,22.19,373.3,9.79a9.27,9.27,0,0,1,3.56.13l22.79,12.4a9.23,9.23,0,0,0-3.55-.13"/><path class="cls-12" d="M399.65,22.32,376.86,9.92a6.79,6.79,0,0,1,1.26.47l22.79,12.4a6.79,6.79,0,0,0-1.26-.47"/><path class="cls-13" d="M400.91,22.79l-22.79-12.4.23.12,22.79,12.4-.23-.12"/></g></g></g><polygon class="cls-5" points="359.42 27.35 336.63 14.95 373.3 9.79 396.1 22.19 359.42 27.35"/><path class="cls-3" d="M396.1,22.19q6-.84,8.42,4.76L351,34.47q2.38-6.27,8.44-7.12Z"/><g class="cls-2"><g class="cls-18"><g class="cls-2"><path class="cls-19" d="M351,34.47l-22.8-12.4a15.68,15.68,0,0,1,.8-1.75l22.8,12.39a14.92,14.92,0,0,0-.8,1.76"/><path class="cls-20" d="M351.78,32.71,329,20.32a14.32,14.32,0,0,1,.75-1.23l22.8,12.4a11.35,11.35,0,0,0-.75,1.22"/><path class="cls-21" d="M352.53,31.49l-22.8-12.4a11.8,11.8,0,0,1,.74-.94l22.8,12.4a9.88,9.88,0,0,0-.74.94"/><path class="cls-22" d="M353.27,30.55l-22.8-12.4c.26-.28.52-.55.79-.8l22.8,12.4a9.94,9.94,0,0,0-.79.8"/><path class="cls-13" d="M354.06,29.75l-22.8-12.4a9.55,9.55,0,0,1,.94-.74L355,29a9.43,9.43,0,0,0-.93.74"/><path class="cls-12" d="M355,29,332.2,16.61a9.72,9.72,0,0,1,1.33-.76l22.8,12.39A9.32,9.32,0,0,0,355,29"/><path class="cls-11" d="M356.33,28.24l-22.8-12.39a10.53,10.53,0,0,1,3.1-.9l22.79,12.4a10.46,10.46,0,0,0-3.09.89"/></g></g></g></g><g class="cls-2"><path class="cls-3" d="M331,53.12l0-5.94,13.75-1.93v4a10.57,10.57,0,0,1-.19,2Z"/><polygon class="cls-4" points="330.95 53.12 308.16 40.72 308.17 34.78 330.96 47.18 330.95 53.12"/><polygon class="cls-5" points="330.96 47.18 308.17 34.78 321.93 32.85 344.72 45.25 330.96 47.18"/></g><g class="cls-2"><path class="cls-3" d="M344.55,37.35a9.93,9.93,0,0,1,.18,2v4l-55,7.73V45.06Z"/><polygon class="cls-4" points="289.71 51 266.91 38.6 266.93 32.66 289.72 45.06 289.71 51"/><polygon class="cls-5" points="289.72 45.06 266.93 32.66 321.76 24.95 344.55 37.35 289.72 45.06"/></g><g class="cls-2"><g class="cls-2"><g class="cls-23"><g class="cls-2"><path class="cls-11" d="M335.58,30.7,312.79,18.3a9,9,0,0,1,3.55.13l22.79,12.4a9,9,0,0,0-3.55-.13"/><path class="cls-12" d="M339.13,30.83l-22.79-12.4a6.77,6.77,0,0,1,1.26.46l22.79,12.4a6.51,6.51,0,0,0-1.26-.46"/><path class="cls-13" d="M340.39,31.29,317.6,18.89l.23.12,22.8,12.4-.24-.12"/></g></g></g><path class="cls-3" d="M335.58,30.7q6-.86,8.43,4.75l-54.29,7.63V37.14Z"/><polygon class="cls-4" points="289.72 43.08 266.93 30.68 266.94 24.74 289.73 37.14 289.72 43.08"/><polygon class="cls-5" points="289.73 37.14 266.94 24.74 312.79 18.3 335.58 30.7 289.73 37.14"/></g><g class="cls-2"><polygon class="cls-5" points="256.06 57.71 233.27 45.31 250.69 42.86 273.48 55.26 256.06 57.71"/><polygon class="cls-3" points="273.48 55.26 269.52 61.76 252.11 64.2 256.06 57.71 273.48 55.26"/><polygon class="cls-15" points="252.11 64.2 229.31 51.8 233.27 45.31 256.06 57.71 252.11 64.2"/></g><g class="cls-2"><polygon class="cls-3" points="237.41 76.16 237.4 82.09 223.65 84.03 223.66 78.09 237.41 76.16"/><polygon class="cls-4" points="223.65 84.03 200.86 71.63 200.87 65.69 223.66 78.09 223.65 84.03"/><polygon class="cls-5" points="223.66 78.09 200.87 65.69 214.62 63.76 237.41 76.16 223.66 78.09"/></g><g class="cls-2"><polygon class="cls-3" points="193.92 104.03 189.98 98.66 218.13 94.7 218.12 100.63 193.92 104.03"/><polygon class="cls-9" points="193.92 104.03 171.12 91.63 167.19 86.26 189.98 98.66 193.92 104.03"/><polygon class="cls-5" points="189.98 98.66 167.19 86.26 195.34 82.3 218.13 94.7 189.98 98.66"/></g><g class="cls-2"><polygon class="cls-3" points="237.43 68.24 237.42 74.17 223.66 76.11 223.68 70.18 237.43 68.24"/><polygon class="cls-4" points="223.66 76.11 200.87 63.71 200.88 57.78 223.68 70.18 223.66 76.11"/><polygon class="cls-5" points="223.68 70.18 200.88 57.78 214.64 55.84 237.43 68.24 223.68 70.18"/></g><g class="cls-2"><polygon class="cls-4" points="204.39 90.69 181.6 78.29 181.6 76.31 204.4 88.71 204.39 90.69"/><polygon class="cls-5" points="204.4 88.71 181.6 76.31 195.35 74.38 218.14 86.78 204.4 88.71"/><polygon class="cls-3" points="204.39 90.69 204.4 88.71 218.14 86.78 218.13 92.72 188.7 96.86 184.77 91.47 203.11 88.89 204.39 90.69"/><polygon class="cls-9" points="188.7 96.86 165.91 84.46 161.98 79.07 184.77 91.47 188.7 96.86"/><polygon class="cls-5" points="184.77 91.47 161.98 79.07 180.31 76.5 203.11 88.89 184.77 91.47"/></g><g class="cls-2"><polygon class="cls-5" points="261.48 49.03 238.69 36.63 256.11 34.18 278.9 46.58 261.48 49.03"/><polygon class="cls-3" points="278.9 46.58 274.86 53.09 257.43 55.54 261.48 49.03 278.9 46.58"/><polygon class="cls-15" points="257.43 55.54 234.64 43.14 238.69 36.63 261.48 49.03 257.43 55.54"/></g><g class="cls-2"><polygon class="cls-3" points="237.44 60.33 237.43 66.26 223.68 68.2 223.69 62.26 237.44 60.33"/><polygon class="cls-4" points="223.68 68.2 200.89 55.8 200.9 49.86 223.69 62.26 223.68 68.2"/><polygon class="cls-5" points="223.69 62.26 200.9 49.86 214.65 47.92 237.44 60.33 223.69 62.26"/></g><g class="cls-2"><polygon class="cls-3" points="204.4 86.73 204.41 80.79 218.16 78.86 218.15 84.8 204.4 86.73"/><polygon class="cls-4" points="204.4 86.73 181.61 74.33 181.62 68.39 204.41 80.79 204.4 86.73"/><polygon class="cls-5" points="204.41 80.79 181.62 68.39 195.36 66.46 218.16 78.86 204.41 80.79"/></g><g class="cls-2"><polygon class="cls-3" points="237.46 52.41 237.45 58.34 223.69 60.28 223.71 54.34 237.46 52.41"/><polygon class="cls-4" points="223.69 60.28 200.9 47.88 200.91 41.94 223.71 54.34 223.69 60.28"/><polygon class="cls-5" points="223.71 54.34 200.91 41.94 214.66 40.01 237.46 52.41 223.71 54.34"/></g><g class="cls-2"><polygon class="cls-3" points="204.41 78.81 204.43 72.88 218.17 70.95 218.16 76.88 204.41 78.81"/><polygon class="cls-4" points="204.41 78.81 181.62 66.41 181.63 60.48 204.43 72.88 204.41 78.81"/><polygon class="cls-5" points="204.43 72.88 181.63 60.48 195.38 58.55 218.17 70.95 204.43 72.88"/></g><g class="cls-2"><polygon class="cls-3" points="237.47 44.49 237.46 50.42 223.71 52.36 223.72 46.42 237.47 44.49"/><polygon class="cls-4" points="223.71 52.36 200.91 39.96 200.93 34.02 223.72 46.42 223.71 52.36"/><polygon class="cls-5" points="223.72 46.42 200.93 34.02 214.68 32.09 237.47 44.49 223.72 46.42"/></g><g class="cls-2"><polygon class="cls-3" points="204.43 70.9 204.44 64.96 218.19 63.03 218.18 68.97 204.43 70.9"/><polygon class="cls-4" points="204.43 70.9 181.64 58.5 181.65 52.56 204.44 64.96 204.43 70.9"/><polygon class="cls-5" points="204.44 64.96 181.65 52.56 195.39 50.63 218.19 63.03 204.44 64.96"/></g><g class="cls-2"><polygon class="cls-3" points="197.9 81.71 201.74 87.11 183.4 89.69 179.56 84.29 197.9 81.71"/><polygon class="cls-9" points="183.4 89.69 160.6 77.29 156.77 71.89 179.56 84.29 183.4 89.69"/><polygon class="cls-5" points="179.56 84.29 156.77 71.89 175.11 69.31 197.9 81.71 179.56 84.29"/></g><g class="cls-2"><polygon class="cls-3" points="163.08 124.2 163.09 118.26 176.84 116.33 176.83 122.27 163.08 124.2"/><polygon class="cls-4" points="163.08 124.2 140.29 111.8 140.3 105.86 163.09 118.26 163.08 124.2"/><polygon class="cls-5" points="163.09 118.26 140.3 105.86 154.05 103.93 176.84 116.33 163.09 118.26"/></g><g class="cls-2"><polygon class="cls-3" points="163.09 116.28 163.11 110.34 176.86 108.41 176.85 114.35 163.09 116.28"/><polygon class="cls-4" points="163.09 116.28 140.3 103.88 140.31 97.94 163.11 110.34 163.09 116.28"/><polygon class="cls-5" points="163.11 110.34 140.31 97.94 154.07 96.01 176.86 108.41 163.11 110.34"/></g><g class="cls-2"><polygon class="cls-3" points="163.11 108.36 163.12 102.43 176.87 100.5 176.86 106.43 163.11 108.36"/><polygon class="cls-4" points="163.11 108.36 140.32 95.96 140.33 90.03 163.12 102.43 163.11 108.36"/><polygon class="cls-5" points="163.12 102.43 140.33 90.03 154.08 88.1 176.87 100.5 163.12 102.43"/></g><g class="cls-2"><polygon class="cls-3" points="143.82 126.91 143.83 120.97 157.59 119.04 157.58 124.98 143.82 126.91"/><polygon class="cls-4" points="143.82 126.91 121.03 114.51 121.04 108.57 143.83 120.97 143.82 126.91"/><polygon class="cls-5" points="143.83 120.97 121.04 108.57 134.79 106.64 157.59 119.04 143.83 120.97"/></g><g class="cls-2"><polygon class="cls-3" points="163.12 100.45 163.13 94.51 176.89 92.58 176.88 98.52 163.12 100.45"/><polygon class="cls-4" points="163.12 100.45 140.33 88.05 140.34 82.11 163.13 94.51 163.12 100.45"/><polygon class="cls-5" points="163.13 94.51 140.34 82.11 154.1 80.18 176.89 92.58 163.13 94.51"/></g><g class="cls-2"><polygon class="cls-3" points="143.84 118.99 143.85 113.05 157.6 111.12 157.59 117.06 143.84 118.99"/><polygon class="cls-4" points="143.84 118.99 121.04 106.59 121.06 100.65 143.85 113.05 143.84 118.99"/><polygon class="cls-5" points="143.85 113.05 121.06 100.65 134.81 98.72 157.6 111.12 143.85 113.05"/></g><g class="cls-2"><polygon class="cls-3" points="163.14 92.53 163.15 86.59 176.9 84.66 176.89 90.6 163.14 92.53"/><polygon class="cls-4" points="163.14 92.53 140.34 80.13 140.36 74.19 163.15 86.59 163.14 92.53"/><polygon class="cls-5" points="163.15 86.59 140.36 74.19 154.11 72.26 176.9 84.66 163.15 86.59"/></g><g class="cls-2"><polygon class="cls-3" points="143.85 111.07 143.86 105.14 157.62 103.2 157.61 109.14 143.85 111.07"/><polygon class="cls-4" points="143.85 111.07 121.06 98.67 121.07 92.74 143.86 105.14 143.85 111.07"/><polygon class="cls-5" points="143.86 105.14 121.07 92.74 134.82 90.81 157.62 103.2 143.86 105.14"/></g><g class="cls-2"><polygon class="cls-3" points="124.57 129.62 124.58 123.67 138.33 121.74 138.32 127.68 124.57 129.62"/><polygon class="cls-4" points="124.57 129.62 101.77 117.22 101.78 111.28 124.58 123.67 124.57 129.62"/><polygon class="cls-5" points="124.58 123.67 101.78 111.28 115.54 109.34 138.33 121.74 124.58 123.67"/></g><g class="cls-2"><polygon class="cls-3" points="204.44 62.98 204.46 57.04 218.2 55.11 218.19 61.05 204.44 62.98"/><polygon class="cls-4" points="204.44 62.98 181.65 50.58 181.66 44.64 204.46 57.04 204.44 62.98"/><polygon class="cls-5" points="204.46 57.04 181.66 44.64 195.41 42.71 218.2 55.11 204.46 57.04"/></g><g class="cls-2"><polygon class="cls-9" points="178.19 82.5 155.4 70.1 154.12 68.3 176.91 80.7 178.19 82.5"/><polygon class="cls-3" points="192.59 74.55 196.53 79.92 178.19 82.5 176.91 80.7 176.91 82.68 163.15 84.61 163.16 78.68 192.59 74.55"/><polygon class="cls-4" points="163.15 84.61 140.36 72.21 140.37 66.28 163.16 78.68 163.15 84.61"/><polygon class="cls-5" points="163.16 78.68 140.37 66.28 169.8 62.15 192.59 74.55 163.16 78.68"/></g><g class="cls-2"><polygon class="cls-3" points="143.87 103.16 143.88 97.22 157.63 95.29 157.62 101.22 143.87 103.16"/><polygon class="cls-4" points="143.87 103.16 121.07 90.76 121.08 84.82 143.88 97.22 143.87 103.16"/><polygon class="cls-5" points="143.88 97.22 121.08 84.82 134.84 82.89 157.63 95.29 143.88 97.22"/></g><g class="cls-2"><polygon class="cls-3" points="124.58 121.69 124.59 115.76 138.34 113.82 138.33 119.76 124.58 121.69"/><polygon class="cls-4" points="124.58 121.69 101.79 109.3 101.8 103.36 124.59 115.76 124.58 121.69"/><polygon class="cls-5" points="124.59 115.76 101.8 103.36 115.55 101.42 138.34 113.82 124.59 115.76"/></g><g class="cls-2"><polygon class="cls-3" points="204.47 49.12 218.22 47.19 218.21 53.13 204.46 55.06 204.47 49.12"/><polygon class="cls-5" points="204.47 49.12 181.68 36.72 195.42 34.79 218.22 47.19 204.47 49.12"/><polygon class="cls-4" points="204.46 55.06 181.67 42.66 181.68 36.72 204.47 49.12 204.46 55.06"/></g><g class="cls-2"><polygon class="cls-3" points="187.38 67.36 191.32 72.75 163.17 76.7 163.18 70.76 187.38 67.36"/><polygon class="cls-4" points="163.17 76.7 140.38 64.3 140.39 58.36 163.18 70.76 163.17 76.7"/><polygon class="cls-5" points="163.18 70.76 140.39 58.36 164.59 54.96 187.38 67.36 163.18 70.76"/></g><g class="cls-2"><polygon class="cls-3" points="143.88 95.24 143.89 89.3 157.65 87.37 157.63 93.31 143.88 95.24"/><polygon class="cls-4" points="143.88 95.24 121.09 82.84 121.1 76.9 143.89 89.3 143.88 95.24"/><polygon class="cls-5" points="143.89 89.3 121.1 76.9 134.85 74.97 157.65 87.37 143.89 89.3"/></g><g class="cls-2"><polygon class="cls-3" points="124.59 113.78 124.61 107.84 138.36 105.91 138.35 111.84 124.59 113.78"/><polygon class="cls-4" points="124.59 113.78 101.8 101.38 101.81 95.44 124.61 107.84 124.59 113.78"/><polygon class="cls-5" points="124.61 107.84 101.81 95.44 115.57 93.51 138.36 105.91 124.61 107.84"/></g><g class="cls-2"><polygon class="cls-3" points="182.17 60.17 186.1 65.56 163.18 68.78 163.19 62.84 182.17 60.17"/><polygon class="cls-4" points="163.18 68.78 140.39 56.38 140.4 50.44 163.19 62.84 163.18 68.78"/><polygon class="cls-5" points="163.19 62.84 140.4 50.44 159.38 47.78 182.17 60.17 163.19 62.84"/></g><g class="cls-2"><polygon class="cls-3" points="143.9 87.32 143.91 81.39 157.66 79.45 157.65 85.39 143.9 87.32"/><polygon class="cls-4" points="143.9 87.32 121.1 74.92 121.11 68.99 143.91 81.39 143.9 87.32"/><polygon class="cls-5" points="143.91 81.39 121.11 68.99 134.87 67.06 157.66 79.45 143.91 81.39"/></g><g class="cls-2"><path class="cls-3" d="M124.62,99.93,138.19,98a9.76,9.76,0,0,1,.18,2v4l-13.75,1.93Z"/><polygon class="cls-5" points="124.62 99.92 101.83 87.53 115.4 85.62 138.19 98.02 124.62 99.92"/><polygon class="cls-4" points="124.61 105.86 101.82 93.47 101.83 87.53 124.62 99.92 124.61 105.86"/></g><g class="cls-2"><polygon class="cls-3" points="176.96 52.99 180.89 58.38 163.2 60.86 163.21 54.92 176.96 52.99"/><polygon class="cls-4" points="163.2 60.86 140.4 48.46 140.41 42.52 163.21 54.92 163.2 60.86"/><polygon class="cls-5" points="163.21 54.92 140.41 42.52 154.17 40.59 176.96 52.99 163.21 54.92"/></g><g class="cls-2"><polygon class="cls-3" points="143.91 79.41 143.92 73.47 157.68 71.53 157.66 77.47 143.91 79.41"/><polygon class="cls-4" points="143.91 79.41 121.12 67.01 121.13 61.07 143.92 73.47 143.91 79.41"/><polygon class="cls-5" points="143.92 73.47 121.13 61.07 134.88 59.14 157.68 71.53 143.92 73.47"/></g><g class="cls-2"><g class="cls-2"><g class="cls-24"><g class="cls-2"><path class="cls-11" d="M129.23,91.36,106.43,79a9.22,9.22,0,0,1,3.55.13l22.79,12.4a9.17,9.17,0,0,0-3.54-.13"/><path class="cls-12" d="M132.77,91.49,110,79.09a6.79,6.79,0,0,1,1.26.47L134,92a6.3,6.3,0,0,0-1.26-.47"/><path class="cls-13" d="M134,92l-22.79-12.4.23.12,22.8,12.4A1.34,1.34,0,0,0,134,92"/></g></g></g><path class="cls-3" d="M129.23,91.36q6-.85,8.42,4.75l-54.29,7.63V97.8Z"/><polygon class="cls-4" points="83.36 103.74 60.57 91.34 60.58 85.41 83.37 97.8 83.36 103.74"/><polygon class="cls-5" points="83.37 97.8 60.58 85.41 106.43 78.96 129.23 91.36 83.37 97.8"/></g><g class="cls-2"><polygon class="cls-3" points="64.08 122.28 64.09 116.35 77.85 114.42 77.84 120.35 64.08 122.28"/><polygon class="cls-4" points="64.08 122.28 41.29 109.88 41.3 103.95 64.09 116.35 64.08 122.28"/><polygon class="cls-5" points="64.09 116.35 41.3 103.95 55.06 102.02 77.85 114.42 64.09 116.35"/></g><g class="cls-2"><polygon class="cls-3" points="143.93 71.49 143.94 65.55 157.69 63.62 157.68 69.56 143.93 71.49"/><polygon class="cls-4" points="143.93 71.49 121.13 59.09 121.14 53.15 143.94 65.55 143.93 71.49"/><polygon class="cls-5" points="143.94 65.55 121.14 53.15 134.9 51.22 157.69 63.62 143.94 65.55"/></g><g class="cls-2"><path class="cls-3" d="M137.68,82.26q-2.42,6.27-8.45,7.12L83.38,95.82V89.89Z"/><polygon class="cls-4" points="83.38 95.82 60.58 83.42 60.59 77.49 83.39 89.89 83.38 95.82"/><polygon class="cls-5" points="83.39 89.89 60.59 77.49 114.88 69.86 137.68 82.26 83.39 89.89"/></g><g class="cls-2"><polygon class="cls-3" points="64.1 114.37 64.11 108.43 77.86 106.5 77.85 112.44 64.1 114.37"/><polygon class="cls-4" points="64.1 114.37 41.31 101.97 41.32 96.03 64.11 108.43 64.1 114.37"/><polygon class="cls-5" points="64.11 108.43 41.32 96.03 55.07 94.1 77.86 106.5 64.11 108.43"/></g><g class="cls-2"><polygon class="cls-3" points="97.16 80.04 97.15 85.98 83.39 87.91 83.4 81.97 97.16 80.04"/><polygon class="cls-4" points="83.39 87.91 60.6 75.51 60.61 69.57 83.4 81.97 83.39 87.91"/><polygon class="cls-5" points="83.4 81.97 60.61 69.57 74.36 67.64 97.16 80.04 83.4 81.97"/></g><g class="cls-2"><polygon class="cls-3" points="64.11 106.45 64.13 100.51 77.88 98.58 77.87 104.52 64.11 106.45"/><polygon class="cls-4" points="64.11 106.45 41.32 94.05 41.33 88.11 64.13 100.51 64.11 106.45"/><polygon class="cls-5" points="64.13 100.51 41.33 88.11 55.09 86.18 77.88 98.58 64.13 100.51"/></g><g class="cls-2"><polygon class="cls-3" points="143.95 57.63 157.71 55.7 157.69 61.64 143.94 63.57 143.95 57.63"/><polygon class="cls-5" points="143.95 57.63 121.16 45.23 134.91 43.3 157.71 55.7 143.95 57.63"/><polygon class="cls-4" points="143.94 63.57 121.15 51.17 121.16 45.23 143.95 57.63 143.94 63.57"/></g><g class="cls-2"><path class="cls-3" d="M124.65,82.11V76.17l13.76-1.93v4a10.75,10.75,0,0,1-.19,2Z"/><polygon class="cls-4" points="124.65 82.11 101.86 69.72 101.87 63.77 124.67 76.17 124.65 82.11"/><polygon class="cls-5" points="124.67 76.17 101.87 63.77 115.63 61.84 138.42 74.24 124.67 76.17"/></g><g class="cls-2"><path class="cls-3" d="M138.25,66.35a9.83,9.83,0,0,1,.18,2v4L83.41,80V74.05Z"/><polygon class="cls-4" points="83.41 79.99 60.61 67.59 60.63 61.66 83.42 74.05 83.41 79.99"/><polygon class="cls-5" points="83.42 74.05 60.63 61.66 115.46 53.95 138.25 66.35 83.42 74.05"/></g><g class="cls-2"><polygon class="cls-3" points="64.13 98.53 64.14 92.6 77.89 90.67 77.88 96.6 64.13 98.53"/><polygon class="cls-4" points="64.13 98.53 41.34 86.13 41.35 80.2 64.14 92.6 64.13 98.53"/><polygon class="cls-5" points="64.14 92.6 41.35 80.2 55.1 78.27 77.89 90.67 64.14 92.6"/></g><g class="cls-2"><g class="cls-2"><g class="cls-25"><g class="cls-2"><path class="cls-11" d="M129.28,59.69l-22.79-12.4a9.23,9.23,0,0,1,3.55.13l22.79,12.4a9.21,9.21,0,0,0-3.55-.13"/><path class="cls-12" d="M132.83,59.82,110,47.42a6.79,6.79,0,0,1,1.26.47l22.79,12.4a6.54,6.54,0,0,0-1.26-.47"/><path class="cls-13" d="M134.09,60.29,111.3,47.89l.23.12,22.8,12.4-.24-.12"/></g></g></g><path class="cls-3" d="M129.28,59.69q6-.86,8.43,4.75L83.42,72.07V66.13Z"/><polygon class="cls-4" points="83.42 72.07 60.63 59.67 60.64 53.73 83.43 66.13 83.42 72.07"/><polygon class="cls-5" points="83.43 66.13 60.64 53.73 106.49 47.29 129.28 59.69 83.43 66.13"/></g><g class="cls-2"><polygon class="cls-3" points="64.14 90.62 64.15 84.68 77.91 82.75 77.9 88.69 64.14 90.62"/><polygon class="cls-4" points="64.14 90.62 41.35 78.22 41.36 72.28 64.15 84.68 64.14 90.62"/><polygon class="cls-5" points="64.15 84.68 41.36 72.28 55.12 70.35 77.91 82.75 64.15 84.68"/></g><g class="cls-2"><polygon class="cls-3" points="36.59 120.22 36.58 126.15 22.82 128.08 22.83 122.15 36.59 120.22"/><polygon class="cls-4" points="22.82 128.08 0.03 115.68 0.04 109.75 22.83 122.15 22.82 128.08"/><polygon class="cls-5" points="22.83 122.15 0.04 109.75 13.79 107.82 36.59 120.22 22.83 122.15"/></g><g class="cls-2"><polygon class="cls-3" points="36.6 112.3 36.59 118.23 22.84 120.17 22.85 114.23 36.6 112.3"/><polygon class="cls-4" points="22.84 120.17 0.04 107.77 0.06 101.83 22.85 114.23 22.84 120.17"/><polygon class="cls-5" points="22.85 114.23 0.06 101.83 13.81 99.9 36.6 112.3 22.85 114.23"/></g><g class="cls-2"><polygon class="cls-3" points="36.62 104.38 36.61 110.31 22.85 112.25 22.86 106.31 36.62 104.38"/><polygon class="cls-4" points="22.85 112.25 0.06 99.85 0.07 93.91 22.86 106.31 22.85 112.25"/><polygon class="cls-5" points="22.86 106.31 0.07 93.91 13.82 91.98 36.62 104.38 22.86 106.31"/></g><g class="cls-2"><polygon class="cls-3" points="36.63 96.47 36.62 102.4 22.87 104.33 22.88 98.4 36.63 96.47"/><polygon class="cls-4" points="22.87 104.33 0.07 91.93 0.09 86 22.88 98.4 22.87 104.33"/><polygon class="cls-5" points="22.88 98.4 0.09 86 13.84 84.06 36.63 96.47 22.88 98.4"/></g><g class="cls-2"><polygon class="cls-3" points="36.65 88.55 36.63 94.48 22.88 96.42 22.89 90.48 36.65 88.55"/><polygon class="cls-4" points="22.88 96.42 0.09 84.02 0.1 78.08 22.89 90.48 22.88 96.42"/><polygon class="cls-5" points="22.89 90.48 0.1 78.08 13.85 76.15 36.65 88.55 22.89 90.48"/></g><g class="cls-2"><path class="cls-3" d="M77.74,74.85a10.75,10.75,0,0,1,.18,2v4l-55,7.73V82.56Z"/><polygon class="cls-4" points="22.9 88.5 0.1 76.1 0.11 70.16 22.91 82.56 22.9 88.5"/><polygon class="cls-5" points="22.91 82.56 0.11 70.16 54.95 62.45 77.74 74.85 22.91 82.56"/></g><g class="cls-2"><g class="cls-2"><g class="cls-26"><g class="cls-2"><path class="cls-11" d="M68.77,68.2,46,55.8a9.08,9.08,0,0,1,3.56.13l22.79,12.4a8.85,8.85,0,0,0-3.55-.13"/><path class="cls-12" d="M72.32,68.33,49.53,55.93a6.77,6.77,0,0,1,1.26.46l22.79,12.4a6.77,6.77,0,0,0-1.26-.46"/><path class="cls-13" d="M73.58,68.79,50.79,56.39l.23.12,22.79,12.4-.23-.12"/></g></g></g><path class="cls-3" d="M68.77,68.2q6-.86,8.42,4.75L22.91,80.58V74.64Z"/><polygon class="cls-4" points="22.91 80.58 0.12 68.18 0.13 62.24 22.92 74.64 22.91 80.58"/><polygon class="cls-5" points="22.92 74.64 0.13 62.24 45.97 55.8 68.77 68.2 22.92 74.64"/></g><g class="cls-2"><polygon class="cls-5" points="266.81 40.36 244.02 27.96 261.44 25.51 284.24 37.91 266.81 40.36"/><polygon class="cls-3" points="284.24 37.91 280.19 44.42 262.77 46.87 266.81 40.36 284.24 37.91"/><polygon class="cls-15" points="262.77 46.87 239.97 34.47 244.02 27.96 266.81 40.36 262.77 46.87"/></g><g class="cls-2"><path class="cls-27" d="M423.5,141.27a3.68,3.68,0,0,1-4.3-2.42l24.95-3.51a5.18,5.18,0,0,1-4.3,3.63Z"/><g class="cls-2"><g class="cls-28"><g class="cls-2"><path class="cls-29" d="M420.92,140.9l-22.8-12.39a4,4,0,0,1-1.71-2.06l22.79,12.4a4,4,0,0,0,1.72,2.05"/></g></g></g><polygon class="cls-30" points="419.2 138.85 396.41 126.45 421.36 122.94 444.15 135.34 419.2 138.85"/></g><g class="cls-2"><g class="cls-2"><g class="cls-31"><g class="cls-2"><path class="cls-29" d="M418.92,137.88l-22.79-12.4a4.68,4.68,0,0,1-.09-1l22.8,12.39a4.71,4.71,0,0,0,.08,1"/></g></g></g><path class="cls-27" d="M418.84,136.88v-2l25.7-3.61v2a5.21,5.21,0,0,1-.1,1l-25.51,3.58A4.71,4.71,0,0,1,418.84,136.88Z"/><polygon class="cls-32" points="418.83 136.88 396.04 124.48 396.05 122.47 418.84 134.87 418.83 136.88"/><polygon class="cls-30" points="418.84 134.87 396.05 122.47 421.74 118.86 444.54 131.26 418.84 134.87"/></g><g class="cls-2"><polygon class="cls-27" points="437.53 131.23 437.54 128.21 444.54 127.22 444.54 130.25 437.53 131.23"/><polygon class="cls-32" points="437.53 131.23 414.74 118.83 414.74 115.81 437.54 128.21 437.53 131.23"/><polygon class="cls-30" points="437.54 128.21 414.74 115.81 421.75 114.82 444.54 127.22 437.54 128.21"/></g><g class="cls-2"><polygon class="cls-27" points="437.54 127.19 437.54 124.17 444.55 123.18 444.55 126.21 437.54 127.19"/><polygon class="cls-32" points="437.54 127.19 414.74 114.8 414.75 111.77 437.54 124.17 437.54 127.19"/><polygon class="cls-30" points="437.54 124.17 414.75 111.77 421.76 110.78 444.55 123.18 437.54 124.17"/></g><g class="cls-2"><polygon class="cls-27" points="437.54 123.17 437.55 120.14 444.56 119.15 444.55 122.18 437.54 123.17"/><polygon class="cls-32" points="437.54 123.17 414.75 110.77 414.76 107.74 437.55 120.14 437.54 123.17"/><polygon class="cls-30" points="437.55 120.14 414.76 107.74 421.77 106.75 444.56 119.15 437.55 120.14"/></g><g class="cls-2"><polygon class="cls-27" points="437.55 119.13 437.56 116.1 444.57 115.12 444.56 118.14 437.55 119.13"/><polygon class="cls-32" points="437.55 119.13 414.76 106.73 414.76 103.7 437.56 116.1 437.55 119.13"/><polygon class="cls-30" points="437.56 116.1 414.76 103.7 421.77 102.72 444.57 115.12 437.56 116.1"/></g><g class="cls-2"><polygon class="cls-27" points="425.85 129.85 425.84 132.88 418.84 133.86 418.85 130.83 425.85 129.85"/><polygon class="cls-32" points="418.84 133.86 396.05 121.46 396.05 118.43 418.85 130.83 418.84 133.86"/><polygon class="cls-30" points="418.85 130.83 396.05 118.43 403.05 117.45 425.85 129.85 418.85 130.83"/></g><g class="cls-2"><polygon class="cls-27" points="437.56 115.09 437.56 112.06 444.57 111.08 444.57 114.11 437.56 115.09"/><polygon class="cls-32" points="437.56 115.09 414.77 102.69 414.77 99.67 437.56 112.06 437.56 115.09"/><polygon class="cls-30" points="437.56 112.06 414.77 99.67 421.78 98.68 444.57 111.08 437.56 112.06"/></g><g class="cls-2"><polygon class="cls-27" points="425.86 125.81 425.85 128.84 418.85 129.82 418.85 126.8 425.86 125.81"/><polygon class="cls-32" points="418.85 129.82 396.06 117.42 396.06 114.4 418.85 126.8 418.85 129.82"/><polygon class="cls-30" points="418.85 126.8 396.06 114.4 403.06 113.41 425.86 125.81 418.85 126.8"/></g><g class="cls-2"><path class="cls-27" d="M395,145.27a3.67,3.67,0,0,1-4.29-2.42l24.95-3.5a5.19,5.19,0,0,1-4.31,3.63Z"/><g class="cls-2"><g class="cls-33"><g class="cls-2"><path class="cls-29" d="M392.42,144.91l-22.8-12.4a4,4,0,0,1-1.71-2.06l22.79,12.4a3.94,3.94,0,0,0,1.72,2.06"/></g></g></g><polygon class="cls-30" points="390.7 142.85 367.91 130.45 392.86 126.95 415.65 139.35 390.7 142.85"/></g><g class="cls-2"><polygon class="cls-27" points="425.86 121.78 425.86 124.81 418.86 125.79 418.86 122.77 425.86 121.78"/><polygon class="cls-32" points="418.86 125.79 396.06 113.39 396.07 110.37 418.86 122.77 418.86 125.79"/><polygon class="cls-30" points="418.86 122.77 396.07 110.37 403.07 109.38 425.86 121.78 418.86 122.77"/></g><g class="cls-2"><g class="cls-2"><g class="cls-34"><g class="cls-2"><path class="cls-29" d="M390.42,141.89l-22.79-12.4a4.78,4.78,0,0,1-.1-1l22.8,12.4a5.55,5.55,0,0,0,.09,1"/></g></g></g><path class="cls-27" d="M390.33,140.89v-2L416,135.26v2a5,5,0,0,1-.1,1l-25.51,3.59A5.55,5.55,0,0,1,390.33,140.89Z"/><polygon class="cls-32" points="390.33 140.89 367.53 128.49 367.54 126.48 390.33 138.88 390.33 140.89"/><polygon class="cls-30" points="390.33 138.88 367.54 126.48 393.24 122.86 416.04 135.26 390.33 138.88"/></g><g class="cls-2"><polygon class="cls-27" points="425.87 117.74 425.86 120.77 418.86 121.75 418.87 118.73 425.87 117.74"/><polygon class="cls-32" points="418.86 121.75 396.07 109.36 396.08 106.33 418.87 118.73 418.86 121.75"/><polygon class="cls-30" points="418.87 118.73 396.08 106.33 403.08 105.34 425.87 117.74 418.87 118.73"/></g><g class="cls-2"><polygon class="cls-27" points="409.03 135.24 409.03 132.21 416.04 131.23 416.04 134.25 409.03 135.24"/><polygon class="cls-32" points="409.03 135.24 386.24 122.84 386.24 119.81 409.03 132.21 409.03 135.24"/><polygon class="cls-30" points="409.03 132.21 386.24 119.81 393.25 118.83 416.04 131.23 409.03 132.21"/></g><g class="cls-2"><polygon class="cls-27" points="425.88 113.71 425.87 116.73 418.87 117.72 418.88 114.69 425.88 113.71"/><polygon class="cls-32" points="418.87 117.72 396.08 105.32 396.08 102.29 418.88 114.69 418.87 117.72"/><polygon class="cls-30" points="418.88 114.69 396.08 102.29 403.08 101.31 425.88 113.71 418.88 114.69"/></g><g class="cls-2"><polygon class="cls-27" points="409.04 131.2 409.04 128.17 416.05 127.19 416.05 130.22 409.04 131.2"/><polygon class="cls-32" points="409.04 131.2 386.24 118.8 386.25 115.78 409.04 128.17 409.04 131.2"/><polygon class="cls-30" points="409.04 128.17 386.25 115.78 393.26 114.79 416.05 127.19 409.04 128.17"/></g><g class="cls-2"><polygon class="cls-32" points="418.88 113.69 396.08 101.29 396.09 99.27 418.88 111.67 418.88 113.69"/><path class="cls-27" d="M444.49,107.06a5.52,5.52,0,0,1,.09,1v2l-25.7,3.61v-2a6,6,0,0,1,.09-1Z"/><g class="cls-2"><g class="cls-35"><g class="cls-2"><path class="cls-29" d="M418.88,111.66,396.09,99.27a5.15,5.15,0,0,1,.09-1L419,110.65a6,6,0,0,0-.09,1"/></g></g></g><polygon class="cls-30" points="418.97 110.65 396.18 98.25 421.69 94.66 444.49 107.06 418.97 110.65"/></g><g class="cls-2"><polygon class="cls-27" points="409.04 127.17 409.05 124.14 416.06 123.16 416.05 126.19 409.04 127.17"/><polygon class="cls-32" points="409.04 127.17 386.25 114.77 386.25 111.75 409.05 124.14 409.04 127.17"/><polygon class="cls-30" points="409.05 124.14 386.25 111.75 393.26 110.76 416.06 123.16 409.05 124.14"/></g><g class="cls-2"><g class="cls-2"><g class="cls-36"><g class="cls-2"><path class="cls-37" d="M439.91,103.67l-22.79-12.4a4.69,4.69,0,0,1,1.81.07l22.79,12.4a4.69,4.69,0,0,0-1.81-.07"/><path class="cls-38" d="M441.72,103.74l-22.79-12.4a3.23,3.23,0,0,1,.64.23l22.8,12.4a3.58,3.58,0,0,0-.65-.23"/><path class="cls-39" d="M442.37,104l-22.8-12.4.12.07,22.8,12.4-.12-.07"/></g></g></g><polygon class="cls-30" points="423.56 105.97 400.77 93.57 417.12 91.27 439.91 103.67 423.56 105.97"/><path class="cls-27" d="M439.91,103.67a3.69,3.69,0,0,1,4.3,2.42l-25,3.51a5.21,5.21,0,0,1,4.31-3.63Z"/><g class="cls-2"><g class="cls-40"><g class="cls-2"><path class="cls-41" d="M419.25,109.6,396.46,97.2a7.28,7.28,0,0,1,.41-.89l22.79,12.4a8.19,8.19,0,0,0-.41.89"/><path class="cls-42" d="M419.66,108.71l-22.79-12.4a5,5,0,0,1,.38-.63L420,108.08c-.13.2-.26.41-.38.63"/><path class="cls-43" d="M420,108.08l-22.79-12.4a4.45,4.45,0,0,1,.38-.48l22.79,12.4c-.13.15-.26.31-.38.48"/><path class="cls-44" d="M420.42,107.6,397.63,95.2a5,5,0,0,1,.4-.4l22.79,12.39c-.14.13-.27.27-.4.41"/><path class="cls-39" d="M420.82,107.19,398,94.8a3.48,3.48,0,0,1,.48-.38l22.79,12.4c-.16.11-.32.24-.48.37"/><path class="cls-38" d="M421.3,106.82l-22.79-12.4a4.14,4.14,0,0,1,.68-.39L422,106.43a4.6,4.6,0,0,0-.68.39"/><path class="cls-37" d="M422,106.43,399.19,94a5.28,5.28,0,0,1,1.58-.46L423.56,106a5.37,5.37,0,0,0-1.58.46"/></g></g></g></g><g class="cls-2"><polygon class="cls-27" points="409.05 123.13 409.06 120.11 416.06 119.12 416.06 122.15 409.05 123.13"/><polygon class="cls-32" points="409.05 123.13 386.26 110.73 386.26 107.71 409.06 120.11 409.05 123.13"/><polygon class="cls-30" points="409.06 120.11 386.26 107.71 393.27 106.72 416.06 119.12 409.06 120.11"/></g><g class="cls-2"><polygon class="cls-27" points="397.35 133.85 397.34 136.88 390.33 137.87 390.34 134.84 397.35 133.85"/><polygon class="cls-32" points="390.33 137.87 367.54 125.47 367.54 122.44 390.34 134.84 390.33 137.87"/><polygon class="cls-30" points="390.34 134.84 367.54 122.44 374.55 121.45 397.35 133.85 390.34 134.84"/></g><g class="cls-2"><polygon class="cls-27" points="409.06 119.1 409.06 116.07 416.07 115.08 416.07 118.11 409.06 119.1"/><polygon class="cls-32" points="409.06 119.1 386.26 106.7 386.27 103.67 409.06 116.07 409.06 119.1"/><polygon class="cls-30" points="409.06 116.07 386.27 103.67 393.28 102.69 416.07 115.08 409.06 116.07"/></g><g class="cls-2"><polygon class="cls-27" points="397.35 129.82 397.35 132.84 390.34 133.83 390.35 130.8 397.35 129.82"/><polygon class="cls-32" points="390.34 133.83 367.55 121.43 367.55 118.4 390.35 130.8 390.34 133.83"/><polygon class="cls-30" points="390.35 130.8 367.55 118.4 374.56 117.42 397.35 129.82 390.35 130.8"/></g><g class="cls-2"><path class="cls-27" d="M366.49,149.28a3.67,3.67,0,0,1-4.29-2.42l24.95-3.51a5.18,5.18,0,0,1-4.31,3.63Z"/><g class="cls-2"><g class="cls-45"><g class="cls-2"><path class="cls-29" d="M363.92,148.92l-22.8-12.4a4.08,4.08,0,0,1-1.72-2.06l22.8,12.4a4,4,0,0,0,1.72,2.06"/></g></g></g><polygon class="cls-30" points="362.2 146.86 339.4 134.46 364.36 130.95 387.15 143.35 362.2 146.86"/></g><g class="cls-2"><polygon class="cls-27" points="397.36 125.79 397.36 128.81 390.35 129.8 390.35 126.77 397.36 125.79"/><polygon class="cls-32" points="390.35 129.8 367.55 117.4 367.56 114.37 390.35 126.77 390.35 129.8"/><polygon class="cls-30" points="390.35 126.77 367.56 114.37 374.57 113.39 397.36 125.79 390.35 126.77"/></g><g class="cls-2"><g class="cls-2"><g class="cls-46"><g class="cls-2"><path class="cls-29" d="M361.92,145.89,339.13,133.5a4.85,4.85,0,0,1-.1-1l22.8,12.4a4.68,4.68,0,0,0,.09,1"/></g></g></g><path class="cls-27" d="M361.83,144.9v-2l25.7-3.61v2a6,6,0,0,1-.09,1l-25.51,3.58A4.68,4.68,0,0,1,361.83,144.9Z"/><polygon class="cls-32" points="361.82 144.9 339.03 132.5 339.04 130.48 361.83 142.88 361.82 144.9"/><polygon class="cls-30" points="361.83 142.88 339.04 130.48 364.73 126.87 387.53 139.27 361.83 142.88"/></g><g class="cls-2"><polygon class="cls-27" points="397.37 121.75 397.36 124.78 390.35 125.76 390.36 122.73 397.37 121.75"/><polygon class="cls-32" points="390.35 125.76 367.56 113.36 367.57 110.34 390.36 122.73 390.35 125.76"/><polygon class="cls-30" points="390.36 122.73 367.57 110.34 374.58 109.35 397.37 121.75 390.36 122.73"/></g><g class="cls-2"><polygon class="cls-27" points="380.52 139.24 380.52 136.22 387.53 135.23 387.53 138.26 380.52 139.24"/><polygon class="cls-32" points="380.52 139.24 357.73 126.84 357.73 123.82 380.52 136.22 380.52 139.24"/><polygon class="cls-30" points="380.52 136.22 357.73 123.82 364.74 122.83 387.53 135.23 380.52 136.22"/></g><g class="cls-2"><polygon class="cls-27" points="397.38 117.71 397.37 120.74 390.36 121.72 390.37 118.7 397.38 117.71"/><polygon class="cls-32" points="390.36 121.72 367.57 109.32 367.57 106.3 390.37 118.7 390.36 121.72"/><polygon class="cls-30" points="390.37 118.7 367.57 106.3 374.58 105.31 397.38 117.71 390.37 118.7"/></g><g class="cls-2"><polygon class="cls-27" points="380.53 135.21 380.53 132.18 387.54 131.2 387.54 134.22 380.53 135.21"/><polygon class="cls-32" points="380.53 135.21 357.73 122.81 357.74 119.78 380.53 132.18 380.53 135.21"/><polygon class="cls-30" points="380.53 132.18 357.74 119.78 364.75 118.8 387.54 131.2 380.53 132.18"/></g><g class="cls-2"><polygon class="cls-32" points="390.37 117.69 367.58 105.3 367.58 103.27 390.37 115.67 390.37 117.69"/><path class="cls-27" d="M416,111.07a4.75,4.75,0,0,1,.1,1v2l-25.7,3.61v-2a6.07,6.07,0,0,1,.1-1Z"/><g class="cls-2"><g class="cls-47"><g class="cls-2"><path class="cls-29" d="M390.37,115.67l-22.79-12.4a5,5,0,0,1,.1-1l22.79,12.39a6.07,6.07,0,0,0-.1,1"/></g></g></g><polygon class="cls-30" points="390.47 114.66 367.68 102.26 393.19 98.67 415.98 111.07 390.47 114.66"/></g><g class="cls-2"><polygon class="cls-27" points="380.53 131.18 380.54 128.15 387.55 127.17 387.54 130.19 380.53 131.18"/><polygon class="cls-32" points="380.53 131.18 357.74 118.78 357.75 115.75 380.54 128.15 380.53 131.18"/><polygon class="cls-30" points="380.54 128.15 357.75 115.75 364.75 114.77 387.55 127.17 380.54 128.15"/></g><g class="cls-2"><g class="cls-2"><g class="cls-48"><g class="cls-2"><path class="cls-37" d="M411.41,107.68l-22.79-12.4a4.51,4.51,0,0,1,1.81.06l22.79,12.4a4.51,4.51,0,0,0-1.81-.06"/><path class="cls-38" d="M413.22,107.74l-22.79-12.4a3.51,3.51,0,0,1,.64.24l22.8,12.4a3.61,3.61,0,0,0-.65-.24"/><path class="cls-39" d="M413.87,108l-22.8-12.4.12.06L414,108l-.11-.06"/></g></g></g><polygon class="cls-30" points="395.06 109.97 372.27 97.57 388.62 95.28 411.41 107.68 395.06 109.97"/><path class="cls-27" d="M411.41,107.68a3.69,3.69,0,0,1,4.3,2.42l-25,3.5a5.22,5.22,0,0,1,4.31-3.63Z"/><g class="cls-2"><g class="cls-49"><g class="cls-2"><path class="cls-41" d="M390.75,113.6,368,101.2c.12-.31.26-.61.4-.89l22.8,12.4a8,8,0,0,0-.41.89"/><path class="cls-42" d="M391.16,112.71l-22.8-12.4a5.44,5.44,0,0,1,.39-.62l22.79,12.4c-.13.19-.26.4-.38.62"/><path class="cls-43" d="M391.54,112.09l-22.79-12.4a4.45,4.45,0,0,1,.38-.48l22.79,12.4c-.13.15-.26.31-.38.48"/><path class="cls-44" d="M391.92,111.61l-22.79-12.4a3.87,3.87,0,0,1,.4-.41l22.79,12.4a5.18,5.18,0,0,0-.4.41"/><path class="cls-39" d="M392.32,111.2,369.53,98.8a4.45,4.45,0,0,1,.48-.38l22.79,12.4a5.71,5.71,0,0,0-.48.38"/><path class="cls-38" d="M392.8,110.82,370,98.42a4.14,4.14,0,0,1,.68-.39l22.79,12.4a4.6,4.6,0,0,0-.68.39"/><path class="cls-37" d="M393.48,110.43,370.69,98a5.59,5.59,0,0,1,1.58-.46L395.06,110a5.68,5.68,0,0,0-1.58.46"/></g></g></g></g><g class="cls-2"><polygon class="cls-27" points="380.54 127.14 380.55 124.11 387.56 123.13 387.55 126.16 380.54 127.14"/><polygon class="cls-32" points="380.54 127.14 357.75 114.74 357.75 111.72 380.55 124.11 380.54 127.14"/><polygon class="cls-30" points="380.55 124.11 357.75 111.72 364.76 110.73 387.56 123.13 380.55 124.11"/></g><g class="cls-2"><polygon class="cls-27" points="368.85 137.86 368.84 140.89 361.83 141.87 361.84 138.84 368.85 137.86"/><polygon class="cls-32" points="361.83 141.87 339.04 129.47 339.04 126.44 361.84 138.84 361.83 141.87"/><polygon class="cls-30" points="361.84 138.84 339.04 126.44 346.05 125.46 368.85 137.86 361.84 138.84"/></g><g class="cls-2"><polygon class="cls-27" points="380.55 123.1 380.56 120.08 387.56 119.09 387.56 122.12 380.55 123.1"/><polygon class="cls-32" points="380.55 123.1 357.76 110.7 357.76 107.68 380.56 120.08 380.55 123.1"/><polygon class="cls-30" points="380.56 120.08 357.76 107.68 364.77 106.69 387.56 119.09 380.56 120.08"/></g><g class="cls-2"><polygon class="cls-27" points="368.85 133.82 368.85 136.85 361.84 137.83 361.84 134.81 368.85 133.82"/><polygon class="cls-32" points="361.84 137.83 339.05 125.43 339.05 122.41 361.84 134.81 361.84 137.83"/><polygon class="cls-30" points="361.84 134.81 339.05 122.41 346.06 121.42 368.85 133.82 361.84 134.81"/></g><g class="cls-2"><path class="cls-27" d="M335.65,153.61v-3l23-3.23a5.19,5.19,0,0,1-4.31,3.63Z"/><polygon class="cls-32" points="335.65 153.61 312.86 141.22 312.87 138.19 335.66 150.59 335.65 153.61"/><polygon class="cls-30" points="335.66 150.59 312.87 138.19 335.86 134.96 358.65 147.36 335.66 150.59"/></g><g class="cls-2"><polygon class="cls-27" points="368.86 129.79 368.86 132.82 361.85 133.8 361.85 130.78 368.86 129.79"/><polygon class="cls-32" points="361.85 133.8 339.05 121.41 339.06 118.38 361.85 130.78 361.85 133.8"/><polygon class="cls-30" points="361.85 130.78 339.06 118.38 346.07 117.39 368.86 129.79 361.85 130.78"/></g><g class="cls-2"><path class="cls-27" d="M335.66,149.59v-3L359,143.28v2a5.86,5.86,0,0,1-.09,1Z"/><polygon class="cls-32" points="335.66 149.59 312.87 137.19 312.87 134.16 335.67 146.56 335.66 149.59"/><polygon class="cls-30" points="335.67 146.56 312.87 134.16 336.23 130.88 359.02 143.28 335.67 146.56"/></g><g class="cls-2"><polygon class="cls-27" points="368.87 125.75 368.86 128.78 361.85 129.77 361.86 126.74 368.87 125.75"/><polygon class="cls-32" points="361.85 129.77 339.06 117.37 339.07 114.34 361.86 126.74 361.85 129.77"/><polygon class="cls-30" points="361.86 126.74 339.07 114.34 346.07 113.36 368.87 125.75 361.86 126.74"/></g><g class="cls-2"><polygon class="cls-27" points="352.02 143.25 352.02 140.22 359.03 139.24 359.03 142.26 352.02 143.25"/><polygon class="cls-32" points="352.02 143.25 329.23 130.85 329.23 127.83 352.02 140.22 352.02 143.25"/><polygon class="cls-30" points="352.02 140.22 329.23 127.83 336.24 126.84 359.03 139.24 352.02 140.22"/></g><g class="cls-2"><polygon class="cls-27" points="368.88 121.72 368.87 124.74 361.86 125.73 361.87 122.7 368.88 121.72"/><polygon class="cls-32" points="361.86 125.73 339.07 113.33 339.07 110.3 361.87 122.7 361.86 125.73"/><polygon class="cls-30" points="361.87 122.7 339.07 110.3 346.08 109.32 368.88 121.72 361.87 122.7"/></g><g class="cls-2"><path class="cls-27" d="M338,141.18a3.67,3.67,0,0,1-4.29-2.42L359,135.2v3Z"/><g class="cls-2"><g class="cls-50"><g class="cls-2"><path class="cls-29" d="M335.44,140.82l-22.79-12.4a4,4,0,0,1-1.72-2.06l22.79,12.4a4,4,0,0,0,1.72,2.06"/></g></g></g><polygon class="cls-30" points="333.72 138.76 310.93 126.36 336.25 122.8 359.04 135.2 333.72 138.76"/></g><g class="cls-2"><polygon class="cls-32" points="361.87 121.7 339.07 109.3 339.08 107.28 361.87 119.68 361.87 121.7"/><path class="cls-27" d="M387.48,115.07a5.63,5.63,0,0,1,.09,1v2l-25.7,3.61v-2a6.07,6.07,0,0,1,.1-1Z"/><g class="cls-2"><g class="cls-51"><g class="cls-2"><path class="cls-29" d="M361.87,119.68l-22.79-12.4a5.18,5.18,0,0,1,.1-1L362,118.66a6.07,6.07,0,0,0-.1,1"/></g></g></g><polygon class="cls-30" points="361.97 118.66 339.18 106.26 364.69 102.67 387.48 115.08 361.97 118.66"/></g><g class="cls-2"><g class="cls-2"><g class="cls-52"><g class="cls-2"><path class="cls-29" d="M333.44,137.8l-22.79-12.4a4.78,4.78,0,0,1-.1-1l22.8,12.4a5.55,5.55,0,0,0,.09,1"/></g></g></g><path class="cls-27" d="M333.35,136.8v-2l25.7-3.61v3l-25.6,3.6A5.55,5.55,0,0,1,333.35,136.8Z"/><polygon class="cls-32" points="333.35 136.8 310.55 124.4 310.56 122.38 333.35 134.78 333.35 136.8"/><polygon class="cls-30" points="333.35 134.78 310.56 122.38 336.25 118.77 359.05 131.17 333.35 134.78"/></g><g class="cls-2"><g class="cls-2"><g class="cls-53"><g class="cls-2"><path class="cls-37" d="M382.91,111.68l-22.79-12.4a4.69,4.69,0,0,1,1.81.07l22.79,12.4a4.69,4.69,0,0,0-1.81-.07"/><path class="cls-38" d="M384.72,111.75l-22.79-12.4a3.51,3.51,0,0,1,.64.24L385.36,112a3.25,3.25,0,0,0-.64-.24"/><path class="cls-39" d="M385.36,112l-22.79-12.4.12.06,22.79,12.4-.12-.06"/></g></g></g><polygon class="cls-30" points="366.55 113.98 343.76 101.58 360.12 99.28 382.91 111.68 366.55 113.98"/><path class="cls-27" d="M382.91,111.68a3.67,3.67,0,0,1,4.29,2.42l-24.95,3.51a5.19,5.19,0,0,1,4.3-3.63Z"/><g class="cls-2"><g class="cls-54"><g class="cls-2"><path class="cls-41" d="M362.25,117.61l-22.79-12.4a7.26,7.26,0,0,1,.4-.89l22.8,12.4a7.28,7.28,0,0,0-.41.89"/><path class="cls-42" d="M362.66,116.72l-22.8-12.4a6.65,6.65,0,0,1,.39-.63L363,116.09a6.58,6.58,0,0,0-.38.63"/><path class="cls-43" d="M363,116.09l-22.79-12.4a4.45,4.45,0,0,1,.38-.48l22.79,12.4c-.13.15-.26.31-.38.48"/><path class="cls-44" d="M363.42,115.61l-22.79-12.4a3.78,3.78,0,0,1,.4-.4l22.79,12.39c-.14.13-.27.27-.4.41"/><path class="cls-39" d="M363.82,115.2,341,102.81a3.48,3.48,0,0,1,.48-.38l22.79,12.4a5.58,5.58,0,0,0-.48.37"/><path class="cls-38" d="M364.3,114.83l-22.79-12.4a4.14,4.14,0,0,1,.68-.39L365,114.44a4.6,4.6,0,0,0-.68.39"/><path class="cls-37" d="M365,114.44,342.19,102a5.21,5.21,0,0,1,1.57-.46L366.55,114a5.3,5.3,0,0,0-1.57.46"/></g></g></g></g><g class="cls-2"><polygon class="cls-27" points="352.04 131.15 352.05 128.12 359.06 127.14 359.05 130.16 352.04 131.15"/><polygon class="cls-32" points="352.04 131.15 329.25 118.75 329.25 115.72 352.05 128.12 352.04 131.15"/><polygon class="cls-30" points="352.05 128.12 329.25 115.72 336.26 114.73 359.06 127.14 352.05 128.12"/></g><g class="cls-2"><polygon class="cls-27" points="352.05 127.11 352.05 124.08 359.06 123.1 359.06 126.12 352.05 127.11"/><polygon class="cls-32" points="352.05 127.11 329.25 114.71 329.26 111.68 352.05 124.08 352.05 127.11"/><polygon class="cls-30" points="352.05 124.08 329.26 111.68 336.27 110.7 359.06 123.1 352.05 124.08"/></g><g class="cls-2"><polygon class="cls-27" points="340.37 129.76 340.36 132.79 333.35 133.77 333.36 130.75 340.37 129.76"/><polygon class="cls-32" points="333.35 133.77 310.56 121.37 310.56 118.35 333.36 130.75 333.35 133.77"/><polygon class="cls-30" points="333.36 130.75 310.56 118.35 317.57 117.36 340.37 129.76 333.36 130.75"/></g><g class="cls-2"><polygon class="cls-27" points="340.37 125.72 340.37 128.75 333.36 129.74 333.37 126.71 340.37 125.72"/><polygon class="cls-32" points="333.36 129.74 310.57 117.33 310.57 114.31 333.37 126.71 333.36 129.74"/><polygon class="cls-30" points="333.37 126.71 310.57 114.31 317.58 113.32 340.37 125.72 333.37 126.71"/></g><g class="cls-2"><polygon class="cls-32" points="333.37 125.71 310.57 113.31 310.58 111.28 333.37 123.68 333.37 125.71"/><g class="cls-2"><g class="cls-55"><g class="cls-2"><path class="cls-29" d="M333.37,123.68l-22.79-12.4a5,5,0,0,1,.1-1l22.79,12.4a5,5,0,0,0-.1,1"/></g></g></g><path class="cls-27" d="M359,119.08a5.52,5.52,0,0,1,.09,1v2l-25.69,3.62v-2a5,5,0,0,1,.1-1Z"/><polygon class="cls-30" points="333.47 122.67 310.68 110.27 336.19 106.68 358.98 119.08 333.47 122.67"/></g><g class="cls-2"><g class="cls-2"><g class="cls-56"><g class="cls-2"><path class="cls-37" d="M354.41,115.69l-22.8-12.4a4.69,4.69,0,0,1,1.81.06l22.8,12.4a4.51,4.51,0,0,0-1.81-.06"/><path class="cls-38" d="M356.22,115.75l-22.8-12.4a3.61,3.61,0,0,1,.65.24L356.86,116a3.51,3.51,0,0,0-.64-.24"/><path class="cls-39" d="M356.86,116l-22.79-12.4.11.06,22.8,12.4-.12-.06"/></g></g></g><polygon class="cls-30" points="338.05 117.99 315.26 105.59 331.61 103.29 354.41 115.69 338.05 117.99"/><path class="cls-27" d="M354.41,115.69a3.68,3.68,0,0,1,4.29,2.42l-24.95,3.5a5.18,5.18,0,0,1,4.3-3.62Z"/><g class="cls-2"><g class="cls-57"><g class="cls-2"><path class="cls-41" d="M333.75,121.61,311,109.22a6.64,6.64,0,0,1,.4-.89l22.8,12.4a7.13,7.13,0,0,0-.41.88"/><path class="cls-42" d="M334.16,120.73l-22.8-12.4a5.58,5.58,0,0,1,.39-.63l22.79,12.4a4.78,4.78,0,0,0-.38.63"/><path class="cls-43" d="M334.54,120.1l-22.79-12.4a4.45,4.45,0,0,1,.38-.48l22.79,12.4c-.13.15-.26.31-.38.48"/><path class="cls-44" d="M334.92,119.62l-22.79-12.4a3.87,3.87,0,0,1,.4-.41l22.79,12.4a5.18,5.18,0,0,0-.4.41"/><path class="cls-39" d="M335.32,119.21l-22.79-12.4a4.45,4.45,0,0,1,.48-.38l22.79,12.4a4.45,4.45,0,0,0-.48.38"/><path class="cls-38" d="M335.8,118.83,313,106.43a4.14,4.14,0,0,1,.68-.39l22.79,12.4a4.14,4.14,0,0,0-.68.39"/><path class="cls-37" d="M336.48,118.44,313.69,106a5.51,5.51,0,0,1,1.57-.45L338.05,118a5.61,5.61,0,0,0-1.57.45"/></g></g></g></g></g></g></svg>