<svg id="Layer_1" data-name="Layer 1" xmlns="http://www.w3.org/2000/svg" viewBox="0 0 688.09 558.56"><defs><style>.cls-1{fill:#231f20;}</style></defs><title>Vert_1col</title><g id="outlines"><path class="cls-1" d="M265.69,257,245.5,214.66c-4.82-10-9.77-21.35-11.46-26.69l-.39.39c.65,7.55.78,17.06.91,25l.52,43.63H220.36V166.87h16.93l21.88,44a163.35,163.35,0,0,1,9.25,23.18l.39-.39c-.39-4.56-1.3-17.45-1.3-25.66l-.26-41.15h14.19V257Z"/><path class="cls-1" d="M308.27,228v1c0,9.12,3.39,18.75,16.28,18.75,6.12,0,11.46-2.21,16.41-6.51l5.6,8.73a35.59,35.59,0,0,1-23.7,8.72c-18.63,0-30.35-13.41-30.35-34.51,0-11.59,2.48-19.27,8.21-25.78,5.34-6.13,11.85-8.86,20.18-8.86A25.44,25.44,0,0,1,339,196.3c5.73,5.21,8.6,13.28,8.6,28.65v3Zm12.63-27.61c-8.07,0-12.5,6.38-12.5,17.06h24.35C332.75,206.72,328.07,200.34,320.9,200.34Z"/><path class="cls-1" d="M423.78,257.25H410.37l-8.08-30.34c-2.08-7.82-4.29-18-4.29-18h-.27s-1,6.52-4.29,18.63l-7.95,29.69H372.08l-18-65.25,14.19-1.95L375.47,222c1.82,8.2,3.38,17.32,3.38,17.32h.39A177,177,0,0,1,383,221.57l8.46-30.48h14.07L413,220.78c2.74,10.68,4.17,18.76,4.17,18.76h.39s1.56-10,3.26-17.71l6.77-30.74H442.4Z"/><path class="cls-1" d="M254.37,373l-7.81-13.94c-6.25-11.06-10.42-17.32-15.37-22.27a7.63,7.63,0,0,0-5.86-2.73V373H210.61V282.87h27.48c20.19,0,29.31,11.72,29.31,25.78,0,12.9-8.34,24.75-22.4,24.75,3.25,1.69,9.24,10.42,13.93,18L272.22,373Zm-20.83-78h-8.21V323.5H233c7.81,0,12-1,14.71-3.78,2.48-2.47,4-6.25,4-10.94C251.77,299.67,246.82,295,233.54,295Z"/><path class="cls-1" d="M291.88,344v1c0,9.12,3.38,18.75,16.28,18.75,6.12,0,11.46-2.21,16.41-6.51l5.6,8.73a35.62,35.62,0,0,1-23.71,8.72c-18.62,0-30.34-13.41-30.34-34.51,0-11.59,2.47-19.27,8.2-25.79,5.34-6.12,11.85-8.85,20.19-8.85a25.44,25.44,0,0,1,18.1,6.77c5.73,5.21,8.6,13.28,8.6,28.65v3Zm12.63-27.61c-8.07,0-12.5,6.38-12.5,17.06h24.35C316.36,322.72,311.67,316.34,304.51,316.34Z"/><path class="cls-1" d="M358,374.42c-14.45,0-14.45-13-14.45-18.62V299.67a105.93,105.93,0,0,0-1.31-19.28L357,277.14c1,4,1.17,9.5,1.17,18.1v55.87c0,8.86.39,10.29,1.43,11.85a4,4,0,0,0,4.69,1l2.35,8.86A22.53,22.53,0,0,1,358,374.42Z"/><path class="cls-1" d="M382.9,297.32a9.33,9.33,0,0,1-9.24-9.5,9.44,9.44,0,1,1,9.24,9.5ZM375.74,373V308.13l14.46-2.6V373Z"/><path class="cls-1" d="M431.22,374.68c-18,0-28-12.63-28-33.86,0-24,14.32-35.42,29-35.42,7.16,0,12.37,1.69,18.23,7.16l-7.16,9.51c-3.91-3.52-7.29-5.08-11.07-5.08a11.2,11.2,0,0,0-10.42,6.64c-1.95,4-2.73,10.16-2.73,18.36,0,9,1.43,14.72,4.42,18a11.6,11.6,0,0,0,8.73,3.77c4.56,0,9-2.21,13.28-6.51l6.78,8.73C446.33,372,440.07,374.68,431.22,374.68Z"/><path class="cls-1" d="M310.82,558.56c-73.47,0-144.11-19.92-198.9-56.08-27.55-18.18-50.66-40-68.69-64.85A224.83,224.83,0,0,1,5.12,353c-15.68-72.08,5-147.49,58.09-212.33C116.16,76,195.1,29.63,285.49,10A432.77,432.77,0,0,1,377.27,0c73.47,0,144.11,19.92,198.9,56.08,27.55,18.19,50.66,40,68.69,64.85A224.85,224.85,0,0,1,683,205.59c15.67,72.08-5,147.48-58.1,212.32-53,64.61-131.89,111-222.27,130.67A432.93,432.93,0,0,1,310.82,558.56ZM377.27,7A425.33,425.33,0,0,0,287,16.82C198.13,36.13,120.58,81.69,68.63,145.08,16.87,208.23-3.26,281.54,12,351.48,24.68,410,60.58,460.21,115.77,496.64c53.66,35.41,122.93,54.92,195.05,54.92a426.14,426.14,0,0,0,90.3-9.82C490,522.42,567.51,476.87,619.46,413.48c51.76-63.16,71.89-136.46,56.68-206.41C663.41,148.55,627.51,98.36,572.31,61.93,518.65,26.51,449.38,7,377.27,7Z"/><path class="cls-1" d="M378.29,526.07a243.1,243.1,0,0,1-171.9-415A243.11,243.11,0,1,1,550.2,454.86,241.56,241.56,0,0,1,378.29,526.07Zm0-479.22a236.1,236.1,0,0,0-167,403.06A236.11,236.11,0,1,0,545.25,116,234.58,234.58,0,0,0,378.29,46.85Z"/><path class="cls-1" d="M331.62,458.49c-101,0-183.1-82.15-183.1-183.13S230.66,92.27,331.62,92.27s183.1,82.14,183.1,183.09S432.59,458.49,331.62,458.49Zm0-359.39c-97.2,0-176.27,79.07-176.27,176.26s79.07,176.3,176.27,176.3,176.27-79.09,176.27-176.3S428.82,99.1,331.62,99.1Z"/></g></svg>